<?xml version="1.0" encoding="utf-8"?><svg version="1.1" id="Layer_1" xmlns="http://www.w3.org/2000/svg" xmlns:xlink="http://www.w3.org/1999/xlink" x="0px" y="0px" viewBox="0 0 103.1 122.88" style="enable-background:new 0 0 103.1 122.88" xml:space="preserve"><style type="text/css">.st0{fill-rule:evenodd;clip-rule:evenodd;} .st1{fill:#FFFFFF;}</style><g><path class="st0" d="M17.14,0h82.64c1.82,0,3.31,1.49,3.31,3.31v92.36c-0.15,2.58-3.48,2.64-7.07,2.48l-80.1,0 c-4.98,0-9.04,4.07-9.04,9.04c0,4.98,4.07,9.04,9.04,9.04h80.1v-9.62h7.07v12.23c0,2.23-1.82,4.05-4.05,4.05H16.28 C7.32,122.89,0,115.57,0,106.61V17.14C0,7.71,7.71,0,17.14,0L17.14,0L17.14,0z M42.6,60.33H31.37l-1.54,6.05H19.75l11.99-36.67 h10.75l12,36.67H44.17L42.6,60.33L42.6,60.33z M40.53,52.4l-3.53-13.18L33.5,52.4H40.53L40.53,52.4z M65.89,48.42l-8.46-1.03 c0.32-1.7,0.78-3.03,1.38-4.01c0.6-0.97,1.46-1.82,2.6-2.54c0.81-0.52,1.93-0.92,3.35-1.2c1.42-0.28,2.96-0.43,4.61-0.43 c2.65,0,4.78,0.17,6.39,0.51c1.61,0.34,2.96,1.06,4.03,2.14c0.76,0.75,1.35,1.81,1.79,3.18c0.43,1.37,0.65,2.69,0.65,3.94v11.73 c0,1.26,0.07,2.23,0.21,2.94c0.14,0.71,0.44,1.61,0.91,2.72h-8.31c-0.33-0.68-0.56-1.2-0.65-1.56c-0.1-0.36-0.21-0.92-0.3-1.69 c-1.17,1.29-2.32,2.2-3.46,2.75c-1.57,0.73-3.39,1.1-5.46,1.1c-2.76,0-4.85-0.73-6.29-2.2c-1.43-1.46-2.14-3.27-2.14-5.42 c0-2.02,0.51-3.68,1.54-4.98c1.03-1.31,2.93-2.27,5.7-2.9c3.32-0.77,5.48-1.31,6.47-1.61c0.99-0.31,2.03-0.71,3.13-1.21 c0-1.26-0.22-2.13-0.67-2.63c-0.45-0.5-1.24-0.75-2.38-0.75c-1.45,0-2.54,0.26-3.26,0.8C66.7,46.49,66.24,47.27,65.89,48.42 L65.89,48.42z M73.57,53.78c-1.22,0.5-2.49,0.95-3.8,1.33c-1.8,0.55-2.94,1.08-3.42,1.62c-0.5,0.56-0.74,1.18-0.74,1.88 c0,0.79,0.25,1.45,0.73,1.96c0.48,0.5,1.2,0.76,2.15,0.76c0.99,0,1.9-0.27,2.76-0.82c0.85-0.56,1.45-1.22,1.8-2.01 c0.35-0.8,0.53-1.82,0.53-3.09V53.78L73.57,53.78z"/><path class="st1" d="M42.6,60.33H31.37l-1.54,6.05H19.75l11.99-36.67h10.75l12,36.67H44.17L42.6,60.33L42.6,60.33z M40.53,52.4 l-3.53-13.18L33.5,52.4H40.53L40.53,52.4z M65.89,48.42l-8.46-1.03c0.32-1.7,0.78-3.03,1.38-4.01c0.6-0.97,1.46-1.82,2.6-2.54 c0.81-0.52,1.93-0.92,3.35-1.2c1.42-0.28,2.96-0.43,4.61-0.43c2.65,0,4.78,0.17,6.39,0.51c1.61,0.34,2.96,1.06,4.03,2.14 c0.76,0.75,1.35,1.81,1.79,3.18c0.43,1.37,0.65,2.69,0.65,3.94v11.73c0,1.26,0.07,2.23,0.21,2.94c0.14,0.71,0.44,1.61,0.91,2.72 h-8.31c-0.33-0.68-0.56-1.2-0.65-1.56c-0.1-0.36-0.21-0.92-0.3-1.69c-1.17,1.29-2.32,2.2-3.46,2.75c-1.57,0.73-3.39,1.1-5.46,1.1 c-2.76,0-4.85-0.73-6.29-2.2c-1.43-1.46-2.14-3.27-2.14-5.42c0-2.02,0.51-3.68,1.54-4.98c1.03-1.31,2.93-2.27,5.7-2.9 c3.32-0.77,5.48-1.31,6.47-1.61c0.99-0.31,2.03-0.71,3.13-1.21c0-1.26-0.22-2.13-0.67-2.63c-0.45-0.5-1.24-0.75-2.38-0.75 c-1.45,0-2.54,0.26-3.26,0.8C66.7,46.49,66.24,47.27,65.89,48.42L65.89,48.42z M73.57,53.78c-1.22,0.5-2.49,0.95-3.8,1.33 c-1.8,0.55-2.94,1.08-3.42,1.62c-0.5,0.56-0.74,1.18-0.74,1.88c0,0.79,0.25,1.45,0.73,1.96c0.48,0.5,1.2,0.76,2.15,0.76 c0.99,0,1.9-0.27,2.76-0.82c0.85-0.56,1.45-1.22,1.8-2.01c0.35-0.8,0.53-1.82,0.53-3.09V53.78L73.57,53.78z"/></g></svg>