<svg id="Layer_1" data-name="Layer 1" xmlns="http://www.w3.org/2000/svg" viewBox="0 0 95.07 122.88"><defs><style>.cls-1{fill-rule:evenodd;}</style></defs><title>read</title><path class="cls-1" d="M77.62,27.52c-.27,1.89-.58,3.83-.84,5.66l.31,3.48a2.88,2.88,0,0,1,2.26,1.61A8.23,8.23,0,0,1,80,42.83c0,.49-.12,1-.21,1.53l-2.43,1a15.72,15.72,0,0,0,.48-2.69,6.19,6.19,0,0,0-.37-3.32,1.76,1.76,0,0,0-2.28-.94l-3.28,2L70.55,31.2c-6.83,4.25-14.62,6.15-23.11,6.36a42.88,42.88,0,0,1-23.16-6.4l-1.47,8.91-2.9-1.62c-.87-.14-1.61-.28-2.22.72a6.83,6.83,0,0,0-.42,4,17.15,17.15,0,0,0,.4,2.17l-2.41-.95c-.06-.33-.11-.66-.14-1a8.82,8.82,0,0,1,.72-5.32,2.88,2.88,0,0,1,2.3-1.52l.31-3.11c-.39-2.4-.86-4.93-1.21-7.35-4.75-33.3,65.88-36.69,60.38,1.45ZM90.84,51.3l-.75,22.27H91c2.25.05,4,1,4.07,4.65v9c-.14,3.39-1.54,5.18-4.06,5.51H89.46l-.61,18.1a4,4,0,0,1-3.15,4l-37.09,7.91a3.93,3.93,0,0,1-2.15,0l-37.1-7.91a4,4,0,0,1-3.15-4l-.6-18.1H4.06C1.53,92.39.14,90.6,0,87.21v-9c.08-3.69,1.82-4.6,4.07-4.65H5L4.23,51.3a4,4,0,0,1,3.84-4.09,3.88,3.88,0,0,1,1.57.27L47.53,62.34,85.42,47.47A4.11,4.11,0,0,1,87,47.21a4,4,0,0,1,3.85,4.09ZM48.53,67.43,86.05,52.82l-2,56.47-35.53,8V67.43Zm-5.8-1.81v51.46l-32.54-7L8.2,52,42.73,65.62ZM37.7,48a1.83,1.83,0,0,1,0,.4,2,2,0,1,1-3.81-.8,10.63,10.63,0,0,0-3.1.72,1,1,0,0,1-1.22-.68,1.13,1.13,0,0,1,.6-1.39,12.11,12.11,0,0,1,4.55-.85,13.51,13.51,0,0,1,4.51.84,1.12,1.12,0,0,1,.62,1.37.94.94,0,0,1-1.2.71c-.33-.12-.67-.23-1-.32Zm19.53-.18a2.22,2.22,0,0,0,0,.37,2,2,0,1,0,4,0,2,2,0,0,0-.12-.69,12.74,12.74,0,0,1,3.09.62.94.94,0,0,0,1.19-.75A1.11,1.11,0,0,0,64.67,46a14.31,14.31,0,0,0-4.52-.74,14.1,14.1,0,0,0-4.47.74A1.11,1.11,0,0,0,55,47.34a.93.93,0,0,0,1.18.74l1-.29Zm9.4-6.8a1.09,1.09,0,0,1-1.38,1.68c-1.51-1.25-4.61-.69-7.26-.21a19.3,19.3,0,0,1-3.82.45,1.09,1.09,0,0,1,.07-2.17,18,18,0,0,0,3.36-.42c3.12-.57,6.75-1.22,9,.67ZM29.69,42.88a1.09,1.09,0,0,1-1.38-1.68c2.28-1.88,5.91-1.24,9-.67a19.16,19.16,0,0,0,3.36.42,1.09,1.09,0,0,1,.07,2.17,19.38,19.38,0,0,1-3.82-.45c-2.64-.49-5.74-1-7.25.21ZM20.45,44a.63.63,0,0,1,.87-.24.64.64,0,0,1,.24.88,2.25,2.25,0,0,0-.35,1.08,1.69,1.69,0,0,0,.32,1,.37.37,0,0,1,.07.14L20,46.19a2.33,2.33,0,0,1,0-.53A3.58,3.58,0,0,1,20.45,44Zm52.73.63a.63.63,0,0,1,.24-.87.64.64,0,0,1,.87.23,3.5,3.5,0,0,1,.52,1.69,2.58,2.58,0,0,1-.07.68L73.1,47a.57.57,0,0,1,.11-.28,1.72,1.72,0,0,0,.32-1,2.44,2.44,0,0,0-.35-1.08Z"/></svg>